<mxfile host="app.diagrams.net" modified="2024-03-03T16:06:57.757Z" agent="Mozilla/5.0 (Windows NT 10.0; Win64; x64; rv:123.0) Gecko/20100101 Firefox/123.0" etag="nv27s_yFLvw9lTJwGE-X" version="24.0.1" type="device">
  <diagram name="1 oldal" id="gTyAqj4-adbOoO595Je8">
    <mxGraphModel dx="1877" dy="577" grid="1" gridSize="10" guides="1" tooltips="1" connect="1" arrows="1" fold="1" page="1" pageScale="1" pageWidth="827" pageHeight="1169" math="0" shadow="0">
      <root>
        <mxCell id="0" />
        <mxCell id="1" parent="0" />
        <mxCell id="izIBmqQ3XeswKk3rCBAt-1" value="Food App" style="swimlane;whiteSpace=wrap;html=1;fillColor=#00CC00;" parent="1" vertex="1">
          <mxGeometry width="720" height="470" as="geometry" />
        </mxCell>
        <mxCell id="izIBmqQ3XeswKk3rCBAt-3" value="" style="rounded=0;whiteSpace=wrap;html=1;fillColor=#000000;" parent="1" vertex="1">
          <mxGeometry y="20" width="720" height="450" as="geometry" />
        </mxCell>
        <mxCell id="izIBmqQ3XeswKk3rCBAt-4" value="" style="rounded=0;whiteSpace=wrap;html=1;fillColor=#000000;strokeColor=#CFCFCF;" parent="1" vertex="1">
          <mxGeometry y="20" width="150" height="450" as="geometry" />
        </mxCell>
        <mxCell id="izIBmqQ3XeswKk3rCBAt-5" value="&lt;font color=&quot;#00cc00&quot;&gt;Kiszállítandó Rendelések&lt;br&gt;&lt;/font&gt;" style="rounded=0;whiteSpace=wrap;html=1;fillColor=#000000;strokeColor=#00CC00;" parent="1" vertex="1">
          <mxGeometry y="60" width="150" height="50" as="geometry" />
        </mxCell>
        <mxCell id="izIBmqQ3XeswKk3rCBAt-6" value="&lt;font style=&quot;font-size: 22px;&quot; color=&quot;#00cc00&quot;&gt;Menü&lt;/font&gt;" style="text;html=1;align=center;verticalAlign=middle;whiteSpace=wrap;rounded=0;" parent="1" vertex="1">
          <mxGeometry y="20" width="60" height="30" as="geometry" />
        </mxCell>
        <mxCell id="izIBmqQ3XeswKk3rCBAt-10" value="&lt;font color=&quot;#ff0000&quot;&gt;Kijelentkezés&lt;/font&gt;" style="rounded=0;whiteSpace=wrap;html=1;fillColor=#000000;strokeColor=#00CC00;" parent="1" vertex="1">
          <mxGeometry x="25" y="430" width="100" height="30" as="geometry" />
        </mxCell>
        <mxCell id="izIBmqQ3XeswKk3rCBAt-11" value="" style="rounded=0;whiteSpace=wrap;html=1;fillColor=#000000;strokeColor=#CFCFCF;" parent="1" vertex="1">
          <mxGeometry x="150" y="20" width="290" height="450" as="geometry" />
        </mxCell>
        <mxCell id="izIBmqQ3XeswKk3rCBAt-12" value="&lt;font style=&quot;font-size: 16px;&quot; color=&quot;#00cc00&quot;&gt;Szállítási cím&lt;br&gt;&lt;/font&gt;" style="text;html=1;align=center;verticalAlign=middle;whiteSpace=wrap;rounded=0;" parent="1" vertex="1">
          <mxGeometry x="149" y="150" width="150" height="30" as="geometry" />
        </mxCell>
        <mxCell id="izIBmqQ3XeswKk3rCBAt-13" value="" style="rounded=0;whiteSpace=wrap;html=1;fillColor=#000000;strokeColor=#CFCFCF;" parent="1" vertex="1">
          <mxGeometry x="175" y="70" width="240" height="30" as="geometry" />
        </mxCell>
        <mxCell id="izIBmqQ3XeswKk3rCBAt-14" value="" style="rounded=0;whiteSpace=wrap;html=1;fillColor=#000000;strokeColor=#CFCFCF;" parent="1" vertex="1">
          <mxGeometry x="174" y="220" width="240" height="30" as="geometry" />
        </mxCell>
        <mxCell id="izIBmqQ3XeswKk3rCBAt-15" value="" style="rounded=0;whiteSpace=wrap;html=1;fillColor=#000000;strokeColor=#CFCFCF;" parent="1" vertex="1">
          <mxGeometry x="174" y="180" width="240" height="30" as="geometry" />
        </mxCell>
        <mxCell id="izIBmqQ3XeswKk3rCBAt-17" value="" style="rounded=0;whiteSpace=wrap;html=1;fillColor=#000000;strokeColor=#CFCFCF;" parent="1" vertex="1">
          <mxGeometry x="174" y="260" width="240" height="30" as="geometry" />
        </mxCell>
        <mxCell id="izIBmqQ3XeswKk3rCBAt-18" value="" style="rounded=0;whiteSpace=wrap;html=1;fillColor=#000000;strokeColor=#CFCFCF;" parent="1" vertex="1">
          <mxGeometry x="174" y="300" width="240" height="30" as="geometry" />
        </mxCell>
        <mxCell id="izIBmqQ3XeswKk3rCBAt-19" value="" style="rounded=0;whiteSpace=wrap;html=1;fillColor=#000000;strokeColor=#CFCFCF;" parent="1" vertex="1">
          <mxGeometry x="174" y="350" width="240" height="80" as="geometry" />
        </mxCell>
        <mxCell id="izIBmqQ3XeswKk3rCBAt-20" style="edgeStyle=orthogonalEdgeStyle;rounded=0;orthogonalLoop=1;jettySize=auto;html=1;exitX=0.75;exitY=1;exitDx=0;exitDy=0;" parent="1" source="izIBmqQ3XeswKk3rCBAt-17" target="izIBmqQ3XeswKk3rCBAt-17" edge="1">
          <mxGeometry relative="1" as="geometry" />
        </mxCell>
        <mxCell id="izIBmqQ3XeswKk3rCBAt-21" value="&lt;font style=&quot;font-size: 23px;&quot; color=&quot;#00cc00&quot;&gt;Szállítási adatok&lt;br&gt;&lt;/font&gt;" style="text;html=1;align=center;verticalAlign=middle;whiteSpace=wrap;rounded=0;" parent="1" vertex="1">
          <mxGeometry x="175" y="32.5" width="240" height="30" as="geometry" />
        </mxCell>
        <mxCell id="izIBmqQ3XeswKk3rCBAt-30" value="&lt;font style=&quot;font-size: 16px;&quot; color=&quot;#00cc00&quot;&gt;Számla&lt;/font&gt;" style="rounded=1;whiteSpace=wrap;html=1;fillColor=#000000;strokeColor=#CFCFCF;" parent="1" vertex="1">
          <mxGeometry x="440" y="32.5" width="80" height="25" as="geometry" />
        </mxCell>
        <mxCell id="izIBmqQ3XeswKk3rCBAt-31" style="edgeStyle=orthogonalEdgeStyle;rounded=0;orthogonalLoop=1;jettySize=auto;html=1;exitX=0.5;exitY=1;exitDx=0;exitDy=0;" parent="1" source="izIBmqQ3XeswKk3rCBAt-30" target="izIBmqQ3XeswKk3rCBAt-30" edge="1">
          <mxGeometry relative="1" as="geometry" />
        </mxCell>
        <mxCell id="izIBmqQ3XeswKk3rCBAt-33" value="" style="endArrow=none;html=1;rounded=0;exitX=0;exitY=1;exitDx=0;exitDy=0;entryX=1;entryY=0.083;entryDx=0;entryDy=0;entryPerimeter=0;strokeColor=#CFCFCF;" parent="1" source="izIBmqQ3XeswKk3rCBAt-30" target="izIBmqQ3XeswKk3rCBAt-3" edge="1">
          <mxGeometry width="50" height="50" relative="1" as="geometry">
            <mxPoint x="390" y="270" as="sourcePoint" />
            <mxPoint x="440" y="220" as="targetPoint" />
          </mxGeometry>
        </mxCell>
        <mxCell id="xxsPR18cQvF9ADB-fWb3-2" value="&lt;font style=&quot;font-size: 17px;&quot; color=&quot;#cfcfcf&quot;&gt;Cím: Minta város, minta utca, 1&lt;/font&gt;" style="text;html=1;align=center;verticalAlign=middle;whiteSpace=wrap;rounded=0;" vertex="1" parent="1">
          <mxGeometry x="440" y="62.5" width="270" height="30" as="geometry" />
        </mxCell>
        <mxCell id="xxsPR18cQvF9ADB-fWb3-4" value="&lt;font style=&quot;font-size: 17px;&quot; color=&quot;#cfcfcf&quot;&gt;Tételek&lt;/font&gt;" style="text;html=1;align=center;verticalAlign=middle;whiteSpace=wrap;rounded=0;" vertex="1" parent="1">
          <mxGeometry x="455" y="100" width="110" height="30" as="geometry" />
        </mxCell>
        <mxCell id="xxsPR18cQvF9ADB-fWb3-5" value="&lt;font style=&quot;font-size: 17px;&quot; color=&quot;#cfcfcf&quot;&gt;1x Minta étel 1&lt;br&gt;&lt;/font&gt;" style="text;html=1;align=center;verticalAlign=middle;whiteSpace=wrap;rounded=0;" vertex="1" parent="1">
          <mxGeometry x="440" y="130" width="150" height="30" as="geometry" />
        </mxCell>
        <mxCell id="xxsPR18cQvF9ADB-fWb3-6" value="&lt;font style=&quot;font-size: 17px;&quot; color=&quot;#cfcfcf&quot;&gt;2x Minta étel 2&lt;br&gt;&lt;/font&gt;" style="text;html=1;align=center;verticalAlign=middle;whiteSpace=wrap;rounded=0;" vertex="1" parent="1">
          <mxGeometry x="440" y="160" width="150" height="30" as="geometry" />
        </mxCell>
        <mxCell id="xxsPR18cQvF9ADB-fWb3-7" value="&lt;font style=&quot;font-size: 17px;&quot; color=&quot;#cfcfcf&quot;&gt;1x Minta ital 1&lt;br&gt;&lt;/font&gt;" style="text;html=1;align=center;verticalAlign=middle;whiteSpace=wrap;rounded=0;" vertex="1" parent="1">
          <mxGeometry x="435" y="190" width="150" height="30" as="geometry" />
        </mxCell>
        <mxCell id="xxsPR18cQvF9ADB-fWb3-8" value="&lt;font style=&quot;font-size: 17px;&quot; color=&quot;#cfcfcf&quot;&gt;3x Minta ital 2&lt;br&gt;&lt;/font&gt;" style="text;html=1;align=center;verticalAlign=middle;whiteSpace=wrap;rounded=0;" vertex="1" parent="1">
          <mxGeometry x="435" y="220" width="150" height="30" as="geometry" />
        </mxCell>
        <mxCell id="xxsPR18cQvF9ADB-fWb3-9" value="&lt;font style=&quot;font-size: 17px;&quot; color=&quot;#cfcfcf&quot;&gt;Áfa&lt;br&gt;&lt;/font&gt;" style="text;html=1;align=center;verticalAlign=middle;whiteSpace=wrap;rounded=0;" vertex="1" parent="1">
          <mxGeometry x="590" y="100" width="50" height="30" as="geometry" />
        </mxCell>
        <mxCell id="xxsPR18cQvF9ADB-fWb3-10" value="&lt;font style=&quot;font-size: 17px;&quot; color=&quot;#cfcfcf&quot;&gt;27%&lt;br&gt;&lt;/font&gt;" style="text;html=1;align=center;verticalAlign=middle;whiteSpace=wrap;rounded=0;" vertex="1" parent="1">
          <mxGeometry x="595" y="130" width="40" height="30" as="geometry" />
        </mxCell>
        <mxCell id="xxsPR18cQvF9ADB-fWb3-11" value="&lt;font style=&quot;font-size: 17px;&quot; color=&quot;#cfcfcf&quot;&gt;27%&lt;br&gt;&lt;/font&gt;" style="text;html=1;align=center;verticalAlign=middle;whiteSpace=wrap;rounded=0;" vertex="1" parent="1">
          <mxGeometry x="595" y="160" width="40" height="30" as="geometry" />
        </mxCell>
        <mxCell id="xxsPR18cQvF9ADB-fWb3-12" value="&lt;font style=&quot;font-size: 17px;&quot; color=&quot;#cfcfcf&quot;&gt;27%&lt;br&gt;&lt;/font&gt;" style="text;html=1;align=center;verticalAlign=middle;whiteSpace=wrap;rounded=0;" vertex="1" parent="1">
          <mxGeometry x="595" y="190" width="40" height="30" as="geometry" />
        </mxCell>
        <mxCell id="xxsPR18cQvF9ADB-fWb3-13" value="&lt;font style=&quot;font-size: 17px;&quot; color=&quot;#cfcfcf&quot;&gt;10%&lt;br&gt;&lt;/font&gt;" style="text;html=1;align=center;verticalAlign=middle;whiteSpace=wrap;rounded=0;" vertex="1" parent="1">
          <mxGeometry x="595" y="220" width="40" height="30" as="geometry" />
        </mxCell>
        <mxCell id="xxsPR18cQvF9ADB-fWb3-14" value="&lt;font style=&quot;font-size: 17px;&quot; color=&quot;#cfcfcf&quot;&gt;Egység Ár&lt;br&gt;&lt;/font&gt;" style="text;html=1;align=center;verticalAlign=middle;whiteSpace=wrap;rounded=0;" vertex="1" parent="1">
          <mxGeometry x="635" y="100" width="90" height="30" as="geometry" />
        </mxCell>
        <mxCell id="xxsPR18cQvF9ADB-fWb3-16" value="&lt;font style=&quot;font-size: 17px;&quot; color=&quot;#cfcfcf&quot;&gt;2700Ft&lt;br&gt;&lt;/font&gt;" style="text;html=1;align=center;verticalAlign=middle;whiteSpace=wrap;rounded=0;" vertex="1" parent="1">
          <mxGeometry x="655" y="130" width="60" height="30" as="geometry" />
        </mxCell>
        <mxCell id="xxsPR18cQvF9ADB-fWb3-18" value="&lt;font style=&quot;font-size: 17px;&quot; color=&quot;#cfcfcf&quot;&gt;2950Ft&lt;br&gt;&lt;/font&gt;" style="text;html=1;align=center;verticalAlign=middle;whiteSpace=wrap;rounded=0;" vertex="1" parent="1">
          <mxGeometry x="655" y="160" width="60" height="30" as="geometry" />
        </mxCell>
        <mxCell id="xxsPR18cQvF9ADB-fWb3-19" value="&lt;font style=&quot;font-size: 17px;&quot; color=&quot;#cfcfcf&quot;&gt;700Ft&lt;br&gt;&lt;/font&gt;" style="text;html=1;align=center;verticalAlign=middle;whiteSpace=wrap;rounded=0;" vertex="1" parent="1">
          <mxGeometry x="655" y="190" width="60" height="30" as="geometry" />
        </mxCell>
        <mxCell id="xxsPR18cQvF9ADB-fWb3-20" value="&lt;font style=&quot;font-size: 17px;&quot; color=&quot;#cfcfcf&quot;&gt;650Ft&lt;br&gt;&lt;/font&gt;" style="text;html=1;align=center;verticalAlign=middle;whiteSpace=wrap;rounded=0;" vertex="1" parent="1">
          <mxGeometry x="655" y="220" width="60" height="30" as="geometry" />
        </mxCell>
        <mxCell id="xxsPR18cQvF9ADB-fWb3-21" value="&lt;font style=&quot;font-size: 17px;&quot; color=&quot;#cfcfcf&quot;&gt;3x Csomagolás&lt;/font&gt;" style="text;html=1;align=center;verticalAlign=middle;whiteSpace=wrap;rounded=0;" vertex="1" parent="1">
          <mxGeometry x="455" y="250" width="120" height="30" as="geometry" />
        </mxCell>
        <mxCell id="xxsPR18cQvF9ADB-fWb3-22" value="&lt;font style=&quot;font-size: 17px;&quot; color=&quot;#cfcfcf&quot;&gt;200Ft&lt;/font&gt;" style="text;html=1;align=center;verticalAlign=middle;whiteSpace=wrap;rounded=0;" vertex="1" parent="1">
          <mxGeometry x="650" y="250" width="70" height="30" as="geometry" />
        </mxCell>
        <mxCell id="xxsPR18cQvF9ADB-fWb3-23" value="" style="endArrow=none;html=1;rounded=0;exitX=1.01;exitY=0.6;exitDx=0;exitDy=0;exitPerimeter=0;strokeColor=#CFCFCF;" edge="1" parent="1">
          <mxGeometry width="50" height="50" relative="1" as="geometry">
            <mxPoint x="440.0000000000001" y="290" as="sourcePoint" />
            <mxPoint x="717.1" y="290" as="targetPoint" />
          </mxGeometry>
        </mxCell>
        <mxCell id="xxsPR18cQvF9ADB-fWb3-24" value="" style="endArrow=none;html=1;rounded=0;exitX=1.01;exitY=0.6;exitDx=0;exitDy=0;exitPerimeter=0;strokeColor=#CFCFCF;" edge="1" parent="1">
          <mxGeometry width="50" height="50" relative="1" as="geometry">
            <mxPoint x="440.0000000000001" y="99" as="sourcePoint" />
            <mxPoint x="717.1" y="99" as="targetPoint" />
          </mxGeometry>
        </mxCell>
        <mxCell id="xxsPR18cQvF9ADB-fWb3-25" value="" style="endArrow=none;html=1;rounded=0;exitX=1.01;exitY=0.6;exitDx=0;exitDy=0;exitPerimeter=0;strokeColor=#CFCFCF;" edge="1" parent="1">
          <mxGeometry width="50" height="50" relative="1" as="geometry">
            <mxPoint x="442.9000000000001" y="129" as="sourcePoint" />
            <mxPoint x="720" y="129" as="targetPoint" />
          </mxGeometry>
        </mxCell>
        <mxCell id="xxsPR18cQvF9ADB-fWb3-26" value="&lt;font style=&quot;font-size: 14px;&quot; color=&quot;#cfcfcf&quot;&gt;Köszönjük, hogy nálunk vásárolt!&lt;/font&gt;&lt;font style=&quot;font-size: 13px;&quot; color=&quot;#cfcfcf&quot;&gt;&lt;br&gt;&lt;/font&gt;" style="text;html=1;align=center;verticalAlign=middle;whiteSpace=wrap;rounded=0;" vertex="1" parent="1">
          <mxGeometry x="455" y="440" width="250" height="20" as="geometry" />
        </mxCell>
        <mxCell id="xxsPR18cQvF9ADB-fWb3-27" value="&lt;font style=&quot;font-size: 17px;&quot; color=&quot;#cfcfcf&quot;&gt;12 350Ft&lt;br&gt;&lt;/font&gt;" style="text;html=1;align=center;verticalAlign=middle;whiteSpace=wrap;rounded=0;" vertex="1" parent="1">
          <mxGeometry x="640" y="330" width="70" height="30" as="geometry" />
        </mxCell>
        <mxCell id="xxsPR18cQvF9ADB-fWb3-28" value="&lt;font style=&quot;font-size: 17px;&quot; color=&quot;#cfcfcf&quot;&gt;Kiszállítási díj&lt;br&gt;&lt;/font&gt;" style="text;html=1;align=center;verticalAlign=middle;whiteSpace=wrap;rounded=0;" vertex="1" parent="1">
          <mxGeometry x="450" y="290" width="120" height="30" as="geometry" />
        </mxCell>
        <mxCell id="xxsPR18cQvF9ADB-fWb3-29" value="&lt;font style=&quot;font-size: 17px;&quot; color=&quot;#cfcfcf&quot;&gt;500 Ft&lt;br&gt;&lt;/font&gt;" style="text;html=1;align=center;verticalAlign=middle;whiteSpace=wrap;rounded=0;" vertex="1" parent="1">
          <mxGeometry x="640" y="290" width="70" height="30" as="geometry" />
        </mxCell>
        <mxCell id="xxsPR18cQvF9ADB-fWb3-30" value="" style="endArrow=none;html=1;rounded=0;exitX=1.01;exitY=0.6;exitDx=0;exitDy=0;exitPerimeter=0;strokeColor=#CFCFCF;" edge="1" parent="1">
          <mxGeometry width="50" height="50" relative="1" as="geometry">
            <mxPoint x="440.0000000000001" y="370" as="sourcePoint" />
            <mxPoint x="717.1" y="370" as="targetPoint" />
          </mxGeometry>
        </mxCell>
        <mxCell id="xxsPR18cQvF9ADB-fWb3-31" value="&lt;font style=&quot;font-size: 17px;&quot; color=&quot;#cfcfcf&quot;&gt;Összesen:&lt;br&gt;&lt;/font&gt;" style="text;html=1;align=center;verticalAlign=middle;whiteSpace=wrap;rounded=0;" vertex="1" parent="1">
          <mxGeometry x="445" y="330" width="120" height="30" as="geometry" />
        </mxCell>
        <mxCell id="xxsPR18cQvF9ADB-fWb3-32" value="&lt;font style=&quot;font-size: 14px;&quot; color=&quot;#cfcfcf&quot;&gt;Nem adóügyi bizonylat!&lt;/font&gt;&lt;font style=&quot;font-size: 15px;&quot; color=&quot;#cfcfcf&quot;&gt;&lt;/font&gt;&lt;font style=&quot;font-size: 16px;&quot; color=&quot;#cfcfcf&quot;&gt;&lt;/font&gt;&lt;font style=&quot;font-size: 13px;&quot; color=&quot;#cfcfcf&quot;&gt;&lt;br&gt;Készítve a Food App rendszerével.&lt;br&gt;&lt;/font&gt;" style="text;html=1;align=center;verticalAlign=middle;whiteSpace=wrap;rounded=0;" vertex="1" parent="1">
          <mxGeometry x="465" y="380" width="250" height="40" as="geometry" />
        </mxCell>
        <mxCell id="xxsPR18cQvF9ADB-fWb3-33" value="" style="rounded=0;whiteSpace=wrap;html=1;fillColor=#000000;strokeColor=#CFCFCF;" vertex="1" parent="1">
          <mxGeometry x="175" y="110" width="240" height="30" as="geometry" />
        </mxCell>
        <mxCell id="xxsPR18cQvF9ADB-fWb3-34" value="&lt;font style=&quot;font-size: 19px;&quot;&gt;Kész&lt;/font&gt;" style="rounded=1;whiteSpace=wrap;html=1;fillColor=#00CC00;" vertex="1" parent="1">
          <mxGeometry x="640" y="23" width="80" height="32.5" as="geometry" />
        </mxCell>
        <mxCell id="xxsPR18cQvF9ADB-fWb3-37" value="" style="rounded=0;whiteSpace=wrap;html=1;fillColor=#00CC00;strokeColor=#00CC00;" vertex="1" parent="1">
          <mxGeometry y="110" width="150" height="50" as="geometry" />
        </mxCell>
        <mxCell id="xxsPR18cQvF9ADB-fWb3-36" value="&lt;font color=&quot;#00cc00&quot;&gt;Minta János 1&lt;br&gt;&lt;/font&gt;" style="rounded=1;whiteSpace=wrap;html=1;fillColor=#000000;strokeColor=#00CC00;" vertex="1" parent="1">
          <mxGeometry x="7.5" y="120" width="135" height="30" as="geometry" />
        </mxCell>
        <mxCell id="xxsPR18cQvF9ADB-fWb3-38" value="" style="rounded=0;whiteSpace=wrap;html=1;fillColor=#000000;strokeColor=#00CC00;" vertex="1" parent="1">
          <mxGeometry x="-1" y="160" width="150" height="50" as="geometry" />
        </mxCell>
        <mxCell id="xxsPR18cQvF9ADB-fWb3-39" value="&lt;font color=&quot;#00cc00&quot;&gt;Minta János 2&lt;br&gt;&lt;/font&gt;" style="rounded=1;whiteSpace=wrap;html=1;fillColor=#000000;strokeColor=#00CC00;" vertex="1" parent="1">
          <mxGeometry x="6.5" y="170" width="135" height="30" as="geometry" />
        </mxCell>
      </root>
    </mxGraphModel>
  </diagram>
</mxfile>
